<?xml version="1.0" standalone="no"?><!DOCTYPE svg PUBLIC "-//W3C//DTD SVG 1.1//EN" "http://www.w3.org/Graphics/SVG/1.1/DTD/svg11.dtd"><svg class="icon" width="200px" height="200.00px" viewBox="0 0 1024 1024" version="1.1" xmlns="http://www.w3.org/2000/svg"><path fill="#333333" d="M674.3 445.2c0-7.5-6-13.5-13.5-13.5H553.2L619.5 233l-0.2-0.1c0.4-1.3 0.8-2.7 0.8-4.2 0-7.5-6-13.5-13.5-13.5H471.4c-6 0-10.9 3.9-12.7 9.3l-0.2-0.1-108.1 324.7 0.2 0.1c-0.4 1.3-0.8 2.7-0.8 4.2 0 7.5 6 13.5 13.5 13.5h120.1L458 795.3h0.2c-0.1 0.5-0.3 1-0.3 1.5 0 7.5 6 13.5 13.5 13.5 5.5 0 9.9-3.3 12-8l0.3 0.1L673 450.8h-0.1c0.9-1.7 1.4-3.6 1.4-5.6zM492.6 729.1L512 554.9h-0.2c0.1-0.5 0.3-1 0.3-1.5 0-7.5-6-13.5-13.5-13.5H382.1l99.2-297.5H588L521.7 441l0.2 0.1c-0.5 1.3-0.8 2.7-0.8 4.2 0 7.5 6 13.5 13.5 13.5h103.8L492.6 729.1zM512 974.3c-62.3 0-122.8-12.2-179.7-36.3-55-23.2-104.3-56.5-146.7-98.9-42.4-42.4-75.7-91.7-98.9-146.7C62.6 635.5 50.4 575 50.4 512.7S62.6 390 86.7 333.1c23.2-55 56.5-104.3 98.9-146.7 42.4-42.4 91.7-75.7 146.7-98.9C389.2 63.4 449.7 51.2 512 51.2c62.3 0 122.8 12.2 179.7 36.3 55 23.2 104.3 56.5 146.7 98.9 42.4 42.4 75.7 91.7 98.9 146.7 24.1 56.9 36.3 117.4 36.3 179.7s-12.2 122.8-36.3 179.7c-23.2 55-56.5 104.3-98.9 146.7s-91.7 75.7-146.7 98.9c-56.9 24-117.4 36.2-179.7 36.2z m0-895.1c-239.1 0-433.6 194.5-433.6 433.6S272.9 946.3 512 946.3c239.1 0 433.6-194.5 433.6-433.6S751.1 79.2 512 79.2z" /></svg>