<?xml version="1.0" standalone="no"?><!DOCTYPE svg PUBLIC "-//W3C//DTD SVG 1.1//EN" "http://www.w3.org/Graphics/SVG/1.1/DTD/svg11.dtd"><svg class="icon" width="200px" height="200.00px" viewBox="0 0 1024 1024" version="1.1" xmlns="http://www.w3.org/2000/svg"><path fill="#333333" d="M747.818667 163.733333l-240.490667 699.733334a21.333333 21.333333 0 1 0 40.341333 13.866666l240.512-699.733333a21.333333 21.333333 0 1 0-40.362666-13.866667zM751.146667 183.765333l149.333333 192a21.333333 21.333333 0 1 0 33.706667-26.197333l-149.333334-192a21.333333 21.333333 0 1 0-33.706666 26.197333zM512 384h405.333333a21.333333 21.333333 0 0 0 0-42.666667H512a21.333333 21.333333 0 0 0 0 42.666667zM900.352 349.76l-405.333333 533.333333a21.333333 21.333333 0 0 0 33.962666 25.813334l405.333334-533.333334a21.333333 21.333333 0 0 0-33.962667-25.813333zM512 192h256a21.333333 21.333333 0 0 0 0-42.666667H512a21.333333 21.333333 0 0 0 0 42.666667zM496.917333 185.749333l181.333334 181.333334a21.333333 21.333333 0 0 0 30.165333-30.165334l-181.333333-181.333333a21.333333 21.333333 0 0 0-30.165334 30.165333zM235.818667 177.6l240.512 699.733333a21.333333 21.333333 0 1 0 40.341333-13.866666l-240.490667-699.733334a21.333333 21.333333 0 1 0-40.362666 13.866667zM239.146667 157.568l-149.333334 192a21.333333 21.333333 0 1 0 33.706667 26.197333l149.333333-192a21.333333 21.333333 0 1 0-33.706666-26.197333zM512 341.333333H106.666667a21.333333 21.333333 0 0 0 0 42.666667h405.333333a21.333333 21.333333 0 0 0 0-42.666667zM89.685333 375.573333l405.333334 533.333334a21.333333 21.333333 0 0 0 33.962666-25.813334l-405.333333-533.333333a21.333333 21.333333 0 1 0-33.962667 25.813333zM512 149.333333H256a21.333333 21.333333 0 0 0 0 42.666667h256a21.333333 21.333333 0 0 0 0-42.666667zM496.917333 155.584l-181.333333 181.333333a21.333333 21.333333 0 0 0 30.165333 30.165334l181.333334-181.333334a21.333333 21.333333 0 1 0-30.165334-30.165333z" /></svg>